<svg xmlns="http://www.w3.org/2000/svg" width="30.716" height="30.717" viewBox="0 0 30.716 30.717"><g transform="translate(315 -390)"><path d="M-315,419.339V391.377A2.084,2.084,0,0,1-313.623,390h27.962a2.306,2.306,0,0,1,1.377,1.377v28.068a2.411,2.411,0,0,1-1.271,1.271h-8.262c.013-.21.036-.421.036-.631q0-5.269,0-10.539v-.684h3.971l.574-4.673H-293.8c0-1.2-.034-2.334.011-3.461a1.567,1.567,0,0,1,1.5-1.624,13.355,13.355,0,0,1,1.634-.084c.5-.013,1.008,0,1.493,0v-4.264c-1.555,0-3.074-.087-4.579.02a5.042,5.042,0,0,0-4.63,3.939,15.544,15.544,0,0,0-.286,2.828c-.045.858-.01,1.719-.01,2.635h-3.917v4.609c1.149,0,2.26.021,3.369-.01.453-.013.559.142.557.572-.015,3.566-.008,7.131-.01,10.7,0,.185-.022.371-.036.589h-.75c-4.466,0-8.932-.022-13.4.016A1.954,1.954,0,0,1-315,419.339Z" fill="#fff"/></g></svg>