<svg xmlns="http://www.w3.org/2000/svg" width="44.447" height="28.691" viewBox="0 0 44.447 28.691">
  <g id="Group_16" data-name="Group 16" transform="translate(43.95 0.5) rotate(90)">
    <path id="Path_7" data-name="Path 7" d="M27.683,21.747q0,6.713.007,13.426a.582.582,0,0,1-.344.588q-6.578,3.778-13.139,7.583a.615.615,0,0,1-.716,0Q6.927,39.539.348,35.765A.585.585,0,0,1,0,35.176Q.013,21.751,0,8.325A.618.618,0,0,1,.361,7.7Q6.976,3.909,13.577.091a.462.462,0,0,1,.539-.009q6.634,3.84,13.28,7.659a.527.527,0,0,1,.293.54Q27.678,15.014,27.683,21.747ZM21.254,32.115c.005-.082.012-.148.012-.214q0-10.118.008-20.235c0-.272-.129-.364-.332-.466q-3.381-1.69-6.754-3.4a.64.64,0,0,0-.661-.009Q10.158,9.5,6.772,11.181a.546.546,0,0,0-.355.576q.013,9.978,0,19.955a.544.544,0,0,0,.346.58c1.878.925,3.747,1.87,5.62,2.807.489.244.981.669,1.471.669s.982-.427,1.47-.672Q18.291,33.607,21.254,32.115ZM26.94,8.754c-.135.063-.244.107-.347.161-1.427.754-2.85,1.517-4.285,2.255a.527.527,0,0,0-.323.556q.01,10.021,0,20.042a.5.5,0,0,0,.306.527c1.446.747,2.881,1.514,4.321,2.272.1.052.206.092.328.145ZM.757,8.744V34.689A.609.609,0,0,0,.9,34.661c1.534-.809,3.07-1.615,4.6-2.439a.5.5,0,0,0,.2-.373q.014-10.1.014-20.2a.448.448,0,0,0-.3-.453c-1.313-.684-2.62-1.381-3.93-2.072C1.257,9,1.033,8.888.757,8.744Zm.348-.627c1.623.86,3.209,1.706,4.8,2.533a.572.572,0,0,0,.43-.059c2.28-1.132,4.552-2.279,6.834-3.407a.515.515,0,0,0,.322-.551c-.011-1.736-.006-3.471-.006-5.207V.963Zm25.473,0L14.2.968c0,2.011,0,3.933.01,5.855a.454.454,0,0,0,.234.307q3.48,1.763,6.973,3.5a.5.5,0,0,0,.4,0C23.386,9.814,24.951,8.979,26.578,8.116ZM13.49,42.509c0-2,.005-3.923-.013-5.845,0-.12-.166-.285-.294-.35-2.271-1.151-4.551-2.287-6.823-3.437a.6.6,0,0,0-.626.022c-1.42.766-2.848,1.516-4.273,2.272-.1.054-.2.118-.331.2Zm13.053-7.134a1.571,1.571,0,0,0-.159-.118c-1.518-.807-3.035-1.617-4.561-2.408a.6.6,0,0,0-.467.027c-2.291,1.136-4.574,2.289-6.865,3.427a.467.467,0,0,0-.3.492c.01,1.789,0,3.577.007,5.365,0,.1.02.192.034.324Z" transform="translate(0 0)" fill="#707070" stroke="#fff" stroke-width="1"/>
  </g>
</svg>
