<svg xmlns="http://www.w3.org/2000/svg" width="30.714" height="30.717" viewBox="0 0 30.714 30.717"><g transform="translate(254 -389)"><path d="M-242.282,389H-235a1.14,1.14,0,0,0,.149.024l2.275.064a12.978,12.978,0,0,1,2.956.383,8.114,8.114,0,0,1,3.7,2.035,8.274,8.274,0,0,1,2.294,4.389,19.9,19.9,0,0,1,.3,3.4c.03.955.039,1.91.039,2.865q0,2.991-.02,5.981c-.005.759-.038,1.517-.06,2.276a13.051,13.051,0,0,1-.382,2.956,8.119,8.119,0,0,1-2.043,3.712,8.386,8.386,0,0,1-4.726,2.352,21.611,21.611,0,0,1-3.053.236c-1,.03-1.993.039-2.989.039q-2.936,0-5.872-.02c-.759-.006-1.517-.039-2.275-.061a13.351,13.351,0,0,1-2.956-.382,7.906,7.906,0,0,1-4.513-2.97,8.979,8.979,0,0,1-1.66-4.743c-.081-.956-.091-1.917-.134-2.876-.01-.22-.021-.44-.031-.66v-7.286a1.154,1.154,0,0,0,.024-.149c.022-.758.042-1.517.064-2.275a13.35,13.35,0,0,1,.382-2.956,7.907,7.907,0,0,1,2.969-4.513,8.977,8.977,0,0,1,4.743-1.66c.956-.081,1.917-.091,2.876-.134Zm16.237,15.37H-226c-.041-2.034-.078-4.068-.124-6.1a9.463,9.463,0,0,0-.346-2.415,5.064,5.064,0,0,0-2.488-3.179,6.906,6.906,0,0,0-3.016-.785c-1.273-.064-2.548-.114-3.823-.117-2.634-.006-5.268.016-7.9.042a15.071,15.071,0,0,0-2.774.222,5.93,5.93,0,0,0-2.364.953,5.336,5.336,0,0,0-2.1,3.341,15.679,15.679,0,0,0-.265,2.864q-.045,1.355-.04,2.711.015,3.936.053,7.872a12.777,12.777,0,0,0,.253,2.647,5.408,5.408,0,0,0,1.808,3.113,5.9,5.9,0,0,0,2.858,1.213,19.977,19.977,0,0,0,2.994.2c1.5.031,3,.029,4.493.035q1.232,0,2.464-.013,1.7-.023,3.392-.062a12.125,12.125,0,0,0,2.382-.253,5.286,5.286,0,0,0,3.274-2.07,6.084,6.084,0,0,0,1.068-3.1c.089-1.022.131-2.051.15-3.077C-226.026,407.068-226.045,405.719-226.045,404.37Z" transform="translate(0 0)" fill="#fff"/><path d="M-190,460.912a7.876,7.876,0,0,1-7.876-7.9,7.884,7.884,0,0,1,7.909-7.875,7.884,7.884,0,0,1,7.869,7.914A7.876,7.876,0,0,1-190,460.912Zm5.123-7.878a5.115,5.115,0,0,0-5-5.127,5.132,5.132,0,0,0-5.223,5.018,5.134,5.134,0,0,0,5.03,5.213A5.116,5.116,0,0,0-184.874,453.034Z" transform="translate(-48.655 -48.66)" fill="#fff"/><path d="M-87.206,430.757a1.857,1.857,0,0,1-1.84,1.849,1.86,1.86,0,0,1-1.857-1.85,1.857,1.857,0,0,1,1.842-1.848A1.852,1.852,0,0,1-87.206,430.757Z" transform="translate(-141.386 -34.596)" fill="#fff"/></g></svg>