<svg xmlns="http://www.w3.org/2000/svg" width="32.648" height="32.648" viewBox="0 0 32.648 32.648"><g transform="translate(342 -321)"><path d="M-342,351.728V322.92a2.835,2.835,0,0,1,1.921-1.92h28.807a2.932,2.932,0,0,1,1.92,1.807v28.92a2.842,2.842,0,0,1-1.92,1.92h-28.807A2.836,2.836,0,0,1-342,351.728Zm12.8-18.471V348.8c.218.01.4.026.585.026,1.185,0,2.372-.022,3.556.012.506.015.677-.116.671-.65-.028-2.446-.022-4.892-.005-7.338a8.2,8.2,0,0,1,.158-1.623,2.463,2.463,0,0,1,2.769-2.1c1.347.023,2.016.636,2.315,2.134a3.551,3.551,0,0,1,.078.67q.021,4.064.029,8.128c0,.238,0,.476,0,.715h4.854c0-3.174.005-6.3,0-9.419a9.082,9.082,0,0,0-.713-3.739,4.607,4.607,0,0,0-4.113-2.707,5.392,5.392,0,0,0-5.382,2.226c-.022.032-.085.035-.2.077v-1.961Zm-7.945,15.522h4.818a1.48,1.48,0,0,0,.039-.215q0-7.446.011-14.892c0-.352-.13-.454-.462-.451-1.241.012-2.483.03-3.723-.008-.537-.017-.7.132-.7.683.021,4.757.012,9.515.012,14.272Zm-.374-20.546a2.856,2.856,0,0,0,2.758,2.909,2.936,2.936,0,0,0,2.9-2.8,2.858,2.858,0,0,0-2.75-2.862A2.839,2.839,0,0,0-337.519,328.232Z" fill="#fff"/></g></svg>