<svg xmlns="http://www.w3.org/2000/svg" width="36.115" height="31.11" viewBox="0 0 36.115 31.11"><g transform="translate(503.096 -386.474)"><path d="M-491.707,419.241c-.008-.005-.015-.013-.024-.014a1.662,1.662,0,0,1-.469-.183q-5.072-2.536-10.145-5.07a1.3,1.3,0,0,1-.7-.866,2.272,2.272,0,0,1-.046-.333.959.959,0,0,1,0-.112q0-11.848,0-23.7a1.326,1.326,0,0,1,.025-.336.764.764,0,0,1,.042-.133.365.365,0,0,1,.406-.209.941.941,0,0,1,.263.1l1.647.823,9.392,4.695c.042.021.084.041.125.063a.259.259,0,0,1,.145.226c0,.052,0,.1,0,.155q0,2.742,0,5.484,0,9.274,0,18.549c0,.1-.005.2-.013.295a.658.658,0,0,1-.091.278.535.535,0,0,1-.323.255c-.031.009-.06.022-.091.033Z" transform="translate(0 -1.657)" fill="#fff"/><path d="M-294.313,386.474c.065.034.13.07.2.1l5.043,2.52,6.187,3.092c.038.019.076.036.113.057a.265.265,0,0,1,.115.382c-.017.033-.038.064-.058.1l-8.518,13.842-2.542,4.131-.128.206c-.055-.022-.069-.07-.092-.108q-.521-.843-1.04-1.688l-6.647-10.8c-.034-.056-.067-.112-.1-.17.026-.044.049-.085.074-.125l5.571-9.052,1.356-2.2.052-.083a.4.4,0,0,1,.18-.152c.034-.015.066-.032.1-.048Z" transform="translate(-184.454)" fill="#fff"/><path d="M-192.574,504.5a.346.346,0,0,0-.029.061.539.539,0,0,1-.581.424.9.9,0,0,1-.312-.079c-.043-.019-.084-.041-.126-.062l-6.878-3.439-2.979-1.491a.346.346,0,0,1-.135-.084c.026-.044.05-.089.077-.132l2.5-4.071,8.362-13.591c.032-.051.064-.1.1-.153Z" transform="translate(-274.406 -87.42)" fill="#fff"/><path d="M-335.45,496.335a.293.293,0,0,1-.062-.006c-.2-.088-10.779-5.385-10.861-5.44a.276.276,0,0,1-.009-.051q0-6.075,0-12.151a.45.45,0,0,1,.008-.058c.049,0,.059.046.076.074q.443.718.885,1.437l9.506,15.446.376.611C-335.508,496.235-335.485,496.275-335.45,496.335Z" transform="translate(-143.591 -84.438)" fill="#fff"/></g></svg>