<?xml version="1.0" encoding="utf-8"?>
<!-- Generator: Adobe Illustrator 24.0.3, SVG Export Plug-In . SVG Version: 6.00 Build 0)  -->
<svg version="1.1" id="Layer_1" xmlns="http://www.w3.org/2000/svg" xmlns:xlink="http://www.w3.org/1999/xlink" x="0px" y="0px"
	 viewBox="0 0 390 350.9" style="enable-background:new 0 0 390 350.9;" xml:space="preserve">
<path d="M153.2,63.3c-31,5.8-52.8,28.3-65.3,67.3c-6.3,19.3-9.4,38.4-9.4,57.2c0,2.3,0.1,4.2,0.3,5.7c0.2,1.6,0.6,5.1,1,10.4h73.4
	v146.8H9.8V215.5C9.8,149.1,23,97.9,49.5,62C76,26,110.6,5.4,153.2,0V63.3z M380.2,63.3c-24.7,4-43.4,18-56.2,41.8
	c-12.8,23.8-19.2,51.2-19.2,82.2c0,2.7,0.1,5.4,0.3,8.1c0.2,2.7,0.8,5.6,1.7,8.8h73.4v146.8H236.1V215.5
	c0-53.4,11.2-101.1,33.7-143.1C292.2,30.4,329,6.3,380.2,0V63.3z"/>
</svg>
