<svg id="Group_17" data-name="Group 17" xmlns="http://www.w3.org/2000/svg" width="45.209" height="36.153" viewBox="0 0 45.209 36.153">
  <path id="Path_8" data-name="Path 8" d="M855.967,541.758H838.955c-1.134,0-1.508-.383-1.482-1.514a18.445,18.445,0,0,1,14.75-17.755,17.952,17.952,0,0,1,16.38,4.576,17.748,17.748,0,0,1,5.52,9.759,26.794,26.794,0,0,1,.379,3.746c.048.784-.44,1.187-1.3,1.187Q864.587,541.76,855.967,541.758Zm-16.107-2.316h32.314a16.2,16.2,0,0,0-32.314,0Z" transform="translate(-833.436 -505.605)" fill="#fff"/>
  <path id="Path_9" data-name="Path 9" d="M819.388,486.029a1.227,1.227,0,0,1-.97-.509q-2.535-2.9-5.076-5.795c-.67-.765-1.351-1.521-2.008-2.3a1.15,1.15,0,1,1,1.778-1.451q2.238,2.552,4.478,5.1c.864.984,1.733,1.964,2.593,2.951a1.149,1.149,0,0,1,.17,1.5A1,1,0,0,1,819.388,486.029Z" transform="translate(-811.022 -466.13)" fill="#fff"/>
  <path id="Path_10" data-name="Path 10" d="M1044.463,485.13a3.531,3.531,0,0,1,.389-.755q3.566-4.1,7.158-8.176a1.137,1.137,0,0,1,1.659-.161,1.17,1.17,0,0,1,.055,1.675q-3.563,4.076-7.139,8.142a1.155,1.155,0,0,1-1.373.362A1.311,1.311,0,0,1,1044.463,485.13Z" transform="translate(-1008.842 -466.353)" fill="#fff"/>
  <path id="Path_11" data-name="Path 11" d="M953.582,420.818c0,1.792,0,3.584,0,5.376a1.121,1.121,0,0,1-1.262,1.233,1.067,1.067,0,0,1-.992-.857,2.2,2.2,0,0,1-.046-.492q0-5.281,0-10.562a1.225,1.225,0,0,1,.8-1.293,1.134,1.134,0,0,1,1.489.991,8.182,8.182,0,0,1,.015.876Q953.583,418.454,953.582,420.818Z" transform="translate(-929.876 -414.166)" fill="#fff"/>
</svg>
