<svg xmlns="http://www.w3.org/2000/svg" width="357" height="86.186" viewBox="0 0 357 86.186"><g transform="translate(0 1202)"><path d="M1189.288-969.188l-.175-1.835c-.087-.7.262-1.136,1.041-1.31,4.106-.7,5.241-2.351,5.241-7.069V-995.73c0-3.058-1.834-4.979-4.63-4.979-3.137,0-7.243,2.446-10.475,6.813v15.448c0,3.844,1.056,5.416,4.281,6.115q1.179.262,1.048,1.31l-.175,1.835a1.164,1.164,0,0,1-1.223,1.048H1166.59a1.155,1.155,0,0,1-1.223-1.048l-.175-1.835c-.087-.7.255-1.136,1.041-1.31,2.8-.7,3.931-2.271,3.931-6.115v-17.107c0-3.057-1.835-5.154-4.623-5.154-3.145,0-6.9,2.358-10.126,6.813V-979.4c0,4.717,1.128,6.37,5.234,7.069q1.179.262,1.048,1.31l-.175,1.835a1.164,1.164,0,0,1-1.223,1.048h-20.609a1.173,1.173,0,0,1-1.223-1.048l-.175-1.835a1.088,1.088,0,0,1,1.048-1.31c4.543-.7,5.853-2.351,5.853-7.069l-.087-13.183c0-3.233-2.1-5.242-5.06-5.766-.793-.175-1.143-.524-1.143-1.223v-1.835a1.252,1.252,0,0,1,.881-1.31,63.307,63.307,0,0,0,14.312-6.108,3.567,3.567,0,0,1,1.922-.611.752.752,0,0,1,.786.961l-1.922,8.9c4.106-4.368,8.728-8.379,15.193-8.379a9.723,9.723,0,0,1,10.046,7.95c4.1-4.28,8.816-7.95,15.186-7.95,6.814,0,10.825,5.329,10.825,11.873V-979.4c0,4.717,1.143,6.37,5.678,7.069a1.081,1.081,0,0,1,1.048,1.31l-.175,1.835a1.164,1.164,0,0,1-1.223,1.048h-20.951a1.164,1.164,0,0,1-1.223-1.048" transform="translate(-996.28 -168.54)" fill="#fff"/><path d="M2561.722-960.725c-5.067,4.623-10.483,7.768-15.725,7.768-6.194,0-10.468-3.844-10.206-10.388.349-7.775,1.129-13.271,1.129-19.561,0-4.273-1.3-6.283-5.322-6.981-.794-.175-1.136-.612-1.049-1.31l.175-1.835a1.159,1.159,0,0,1,1.223-1.048h14.319a1.034,1.034,0,0,1,1.135,1.048c0,7.942-.612,17.027-1.311,26.28-.262,3.669,1.835,5.5,5.329,5.5,3.32,0,7.069-2.708,10.032-5.853v-15.717c0-4.273-1.3-6.37-5.322-7.068q-1.18-.263-1.048-1.31l.174-1.835a1.164,1.164,0,0,1,1.223-1.048h14.232a1.034,1.034,0,0,1,1.135,1.048v31.609c0,15.018-14.581,27.59-30.466,27.59a11.879,11.879,0,0,1-6.813-2.009,3.579,3.579,0,0,1-.357-5.678l4.979-4.8a2.329,2.329,0,0,1,1.748-.787h1.747a1.8,1.8,0,0,1,1.66.874,8.063,8.063,0,0,0,7.075,4.273c6.981,0,10.563-6.108,10.381-13.708Z" transform="translate(-2214.849 -181.981)" fill="#fff"/><path d="M679.909-984.439l-1.222-.873a1.357,1.357,0,0,0-1.833.349,14.266,14.266,0,0,1-10.383,5.152c-6.8.175-11.256-3.667-13.09-9.422l22.513-8.557a1.269,1.269,0,0,0,.873-1.31v-1.222a6.054,6.054,0,0,0-.167-1.39c-1.4-5.589-5.5-11.351-14.058-11.351-11.518,0-19.631,9.343-19.631,21.385,0,11.256,8.026,21.116,19.893,21.028,9.343-.087,15.1-6.454,17.456-12.13A1.363,1.363,0,0,0,679.909-984.439Zm-19.719-23.386c4.533,0,6.8,3.754,6.018,8.113L652.768-993.6C650.76-1000.84,653.467-1007.825,660.19-1007.825Z" transform="translate(-562.705 -165.366)" fill="#fff"/><path d="M2163.146-978.683c0,4.72.7,6.373,5.245,7.073a1.08,1.08,0,0,1,1.041,1.311l-.174,1.836a1.16,1.16,0,0,1-1.224,1.049H2147.42a1.165,1.165,0,0,1-1.224-1.049l-.175-1.836a1.081,1.081,0,0,1,1.049-1.311c4.545-.7,5.856-2.353,5.856-7.073l-.095-13.19c0-3.234-2.091-5.245-5.062-5.769-.787-.175-1.136-.524-1.136-1.223v-1.836a1.243,1.243,0,0,1,.874-1.311,63.679,63.679,0,0,0,14.32-6.111,3.57,3.57,0,0,1,1.93-.612.748.748,0,0,1,.779.961l-1.916,8.908c4.1-4.37,9-8.384,15.463-8.384,6.811,0,10.831,5.332,10.831,11.88v16.687c0,4.72,1.129,6.373,5.674,7.073a1.078,1.078,0,0,1,1.048,1.311l-.174,1.836a1.163,1.163,0,0,1-1.216,1.049H2173.19a1.165,1.165,0,0,1-1.224-1.049l-.174-1.836a1.081,1.081,0,0,1,1.048-1.311c4.545-.7,5.325-2.353,5.325-7.073v-16.337c0-3.059-1.828-4.982-4.625-4.982-3.146,0-7.167,2.272-10.394,6.73Z" transform="translate(-1878.291 -169.154)" fill="#fff"/><path d="M1785.814-972.64l-.357-2.44c-.087-.706-.867-.881-1.479-.531a10.479,10.479,0,0,1-4.807,1.224,2.621,2.621,0,0,1-2.885-2.877v-30.591a1.037,1.037,0,0,0-.01-.257.638.638,0,0,0-.182-.381l0,0a.676.676,0,0,0-.053-.049.67.67,0,0,0-.091-.063l-.012-.006a.819.819,0,0,0-.265-.088l-.025,0a1.091,1.091,0,0,0-.139-.01h-.012a3.574,3.574,0,0,0-1.931.612c-1.972,1.113-3.8,2.062-5.651,2.91a20.485,20.485,0,0,0-11.191-3.347c-12.586,0-20.526,8.908-20.526,21.225,0,11.8,6.461,21.32,18.166,21.32a15.662,15.662,0,0,0,12.667-6.468,7.723,7.723,0,0,0,7.771,5.769,15.739,15.739,0,0,0,10.4-4.108A1.994,1.994,0,0,0,1785.814-972.64Zm-23.767-2.967c-5.157,1.916-11.705-.532-14.932-8.129-3.5-8.209-2.273-15.376,2.79-17.736,5.419-2.528,12.324.175,15.988,8.828C1769.388-984.348,1767.116-977.537,1762.047-975.607Z" transform="translate(-1519.603 -169.17)" fill="#fff"/><path d="M293.967-1141.48c-4.543-.707-5.678-2.359-5.678-7.077v-16.677c0-6.544-4.011-11.874-10.818-11.874-6.464,0-10.832,3.931-14.931,8.3l.419-32.3a1.085,1.085,0,0,0,0-.226.716.716,0,0,0-.791-.668,3.571,3.571,0,0,0-1.93.612,63.255,63.255,0,0,1-12.836,5.656l-.494.207a1.509,1.509,0,0,0-.522.346,1.448,1.448,0,0,0-.359,1.052v1.74c0,.7.349,1.056,1.143,1.223,2.97.524,5.059,2.533,5.059,5.766l.095,36.842c0,4.718-1.318,6.37-5.853,7.077a1.083,1.083,0,0,0-1.056,1.3l.182,1.835a1.164,1.164,0,0,0,1.223,1.049h20.6a1.16,1.16,0,0,0,1.223-1.049l.175-1.835a1.075,1.075,0,0,0-1.048-1.3c-4.535-.707-5.234-2.359-5.234-7.077v-14.581c3.225-4.447,7.243-6.719,10.388-6.719,2.8,0,4.623,1.922,4.623,4.972v16.328c0,4.718-.786,6.37-5.322,7.077a1.075,1.075,0,0,0-1.048,1.3l.175,1.835a1.164,1.164,0,0,0,1.223,1.049h21.046a1.162,1.162,0,0,0,1.216-1.049l.175-1.835A1.075,1.075,0,0,0,293.967-1141.48Z" transform="translate(-214.792 0)" fill="#fff"/><path d="M29.088-1090.231l-1.58-2.184a1.135,1.135,0,0,0-1.827-.175c-1.223,1.223-4.361,3.407-6.2,3.407-2.1,0-3.152-1.223-3.152-3.582l.095-24.445,1.485.087h8.554a1.272,1.272,0,0,0,1.4-1.048l.7-3.232a.933.933,0,0,0-.961-1.223H16.334l1.557-7.159h0l.223-1.039,1.274-5.86a1.591,1.591,0,0,0,.033-.218l.385-1.792a.748.748,0,0,0-.779-.961,3.571,3.571,0,0,0-1.93.612c-.84.474-1.653.918-2.453,1.337v0a1.86,1.86,0,0,0-.752.755,44.641,44.641,0,0,1-3.64,5.571q-.471.612-.958,1.2a37.911,37.911,0,0,1-8.5,7.551,1.663,1.663,0,0,0-.779,1.66l.437,2.708a1.481,1.481,0,0,0,1.216,1.31c2.715.7,4.106,1.835,4.106,4.892v21.126c-.087,5.671,3.232,9.34,9.173,9.34,4.71,0,10.126-3.494,13.882-6.9A1.333,1.333,0,0,0,29.088-1090.231Z" transform="translate(0 -54.568)" fill="#fff"/></g></svg>