<svg xmlns="http://www.w3.org/2000/svg" width="32.92" height="26.903" viewBox="0 0 32.92 26.903"><g transform="translate(359.862 -405)"><path d="M-337.963,405h1.624a2,2,0,0,0,.325.107,6.371,6.371,0,0,1,3.439,1.657,1.02,1.02,0,0,0,1.179.271c1.181-.437,2.368-.86,3.552-1.289a7,7,0,0,1-2.688,3.451l.113.165,3.477-1.006a10.622,10.622,0,0,1-2.831,2.95,1.222,1.222,0,0,0-.53,1.048,28.271,28.271,0,0,1-.629,4.92c-2.1,7.491-6.8,12.4-14.512,14.184-.895.207-1.817.3-2.726.445h-2.9a3.576,3.576,0,0,0-.494-.116,19.008,19.008,0,0,1-7.87-2.526c-.148-.086-.287-.186-.431-.28a14.32,14.32,0,0,0,9.819-2.893,7.012,7.012,0,0,1-6.341-4.738h2.768l.026-.152a6.924,6.924,0,0,1-5.165-6.659c.547.206.986.405,1.444.534s.939.189,1.41.279l.055-.135a6.722,6.722,0,0,1-2.687-4.058,6.64,6.64,0,0,1,.75-4.863,19.388,19.388,0,0,0,14.028,7.078c-.015-.179-.014-.274-.031-.366a6.78,6.78,0,0,1,4.724-7.708C-338.7,405.194-338.329,405.1-337.963,405Z" fill="#fff"/></g></svg>